<?xml version="1.0" encoding="UTF-8"?>
<svg xmlns="http://www.w3.org/2000/svg" xmlns:xlink="http://www.w3.org/1999/xlink" width="82px" height="64px" viewBox="0 0 82 64" version="1.1">
<g id="surface1">
<path style=" stroke:none;fill-rule:nonzero;fill:rgb(100%,14.901961%,30.196078%);fill-opacity:1;" d="M 38.257812 26.585938 C 38.257812 33.21875 38.324219 39.847656 38.21875 46.476562 C 38.1875 48.160156 37.703125 49.859375 37.265625 51.511719 C 36.832031 53.160156 36.050781 54.710938 35.054688 56.125 C 33.496094 58.359375 31.4375 60.191406 29.042969 61.472656 C 27.105469 62.511719 25.042969 63.125 22.890625 63.539062 C 20.839844 63.953125 18.738281 64.066406 16.65625 63.878906 C 13.972656 63.617188 11.339844 63.035156 8.828125 61.964844 C 6.710938 61.0625 4.773438 59.871094 2.867188 58.613281 C 2.492188 58.367188 2.34375 58.113281 2.613281 57.667969 C 3.316406 56.5 4 55.320312 4.679688 54.140625 C 4.898438 53.761719 5.101562 53.730469 5.457031 54.023438 C 7.6875 55.886719 10.28125 57.253906 13.074219 58.039062 C 15.503906 58.726562 17.976562 58.769531 20.429688 58.582031 C 23.636719 58.335938 26.519531 57.121094 28.832031 54.800781 C 30.476562 53.152344 31.464844 51.132812 32.027344 48.871094 C 32.648438 46.359375 32.367188 43.8125 32.441406 41.285156 C 32.457031 40.863281 32.472656 40.441406 32.453125 40.019531 C 32.445312 39.847656 32.355469 39.683594 32.300781 39.511719 C 32.167969 39.601562 32.035156 39.703125 31.925781 39.820312 C 31.296875 40.632812 30.710938 41.484375 30.042969 42.265625 C 28.699219 43.851562 26.996094 44.960938 25.121094 45.824219 C 22.472656 47.039062 19.667969 47.3125 16.804688 47.203125 C 13.597656 47.105469 10.492188 46.09375 7.832031 44.289062 C 5.636719 42.804688 3.917969 40.855469 2.585938 38.535156 C 1.429688 36.53125 0.65625 34.324219 0.304688 32.035156 C 0.0234375 30.242188 0 28.40625 0 26.589844 C 0 24.8125 0.359375 23.058594 0.910156 21.378906 C 1.65625 19.089844 2.734375 16.964844 4.300781 15.089844 C 6.480469 12.480469 9.183594 10.695312 12.425781 9.761719 C 13.488281 9.453125 14.59375 9.292969 15.691406 9.128906 C 16.480469 8.996094 17.277344 8.929688 18.074219 8.9375 C 21.199219 9.011719 24.1875 9.683594 26.875 11.359375 C 28.363281 12.285156 29.730469 13.371094 30.746094 14.835938 C 31.148438 15.425781 31.566406 16.007812 31.984375 16.582031 C 32.085938 16.6875 32.191406 16.78125 32.3125 16.863281 C 32.363281 16.726562 32.457031 16.589844 32.457031 16.453125 C 32.457031 14.492188 32.441406 12.527344 32.4375 10.5625 C 32.429688 7.863281 32.4375 5.160156 32.429688 2.460938 C 32.429688 2.03125 32.558594 1.722656 33.003906 1.578125 C 34.375 1.128906 35.714844 0.570312 37.109375 0.226562 C 38.507812 -0.121094 39.925781 -0.0390625 41.339844 0.300781 C 44.652344 1.09375 47.132812 3.054688 49.011719 5.816406 C 49.59375 6.671875 49.980469 7.671875 50.382812 8.636719 C 51.042969 10.21875 51.65625 11.8125 52.28125 13.40625 C 52.941406 15.101562 53.585938 16.800781 54.246094 18.492188 C 54.867188 20.070312 55.5 21.636719 56.125 23.207031 C 56.996094 25.402344 57.867188 27.597656 58.746094 29.785156 C 59.597656 31.914062 60.472656 34.03125 61.320312 36.160156 C 61.992188 37.867188 62.625 39.589844 63.300781 41.296875 C 63.367188 41.460938 63.5625 41.570312 63.703125 41.707031 C 63.808594 41.566406 63.957031 41.441406 64.015625 41.285156 C 64.847656 39.128906 65.667969 36.972656 66.484375 34.8125 C 67.171875 32.996094 67.839844 31.175781 68.523438 29.363281 C 69.167969 27.664062 69.816406 25.96875 70.464844 24.273438 C 71.058594 22.707031 71.660156 21.140625 72.253906 19.574219 C 73.347656 16.710938 74.4375 13.851562 75.527344 10.988281 C 75.695312 10.570312 75.855469 10.140625 75.992188 9.707031 C 76.121094 9.316406 76.359375 9.148438 76.769531 9.148438 C 78.355469 9.160156 79.941406 9.148438 81.53125 9.15625 C 81.996094 9.15625 82.089844 9.292969 81.933594 9.675781 C 81.355469 11.101562 80.777344 12.527344 80.214844 13.957031 C 79.433594 15.921875 78.667969 17.894531 77.886719 19.855469 C 76.890625 22.375 75.875 24.882812 74.878906 27.398438 C 73.808594 30.09375 72.75 32.796875 71.675781 35.488281 C 70.484375 38.472656 69.269531 41.453125 68.082031 44.4375 C 67.089844 46.9375 66.132812 49.453125 65.132812 51.949219 C 64.234375 54.207031 63.417969 56.5 62.015625 58.523438 C 60.324219 60.972656 58.171875 62.800781 55.257812 63.59375 C 53.414062 64.097656 51.550781 64.101562 49.671875 63.75 C 47.765625 63.390625 45.96875 62.582031 44.433594 61.390625 C 44.089844 61.125 44.023438 60.921875 44.234375 60.523438 C 44.882812 59.289062 45.5 58.03125 46.121094 56.773438 C 46.375 56.25 46.476562 56.242188 46.957031 56.550781 C 48.230469 57.378906 49.613281 57.9375 51.148438 58.003906 C 52.480469 58.058594 53.796875 58.019531 55.019531 57.371094 C 56.265625 56.703125 57.324219 55.8125 57.988281 54.566406 C 58.898438 52.859375 59.71875 51.101562 60.515625 49.339844 C 60.664062 48.949219 60.664062 48.515625 60.519531 48.121094 C 59.507812 45.570312 58.4375 43.039062 57.390625 40.503906 C 56.410156 38.128906 55.433594 35.75 54.464844 33.371094 C 53.515625 31.054688 52.570312 28.738281 51.628906 26.425781 C 50.589844 23.886719 49.542969 21.347656 48.496094 18.8125 C 47.714844 16.941406 46.914062 15.085938 46.128906 13.214844 C 45.679688 12.136719 45.234375 11.054688 44.820312 9.964844 C 44.332031 8.691406 43.351562 7.859375 42.300781 7.089844 C 41.273438 6.335938 40.058594 6.097656 38.835938 5.898438 C 38.382812 5.824219 38.261719 6.085938 38.265625 6.488281 C 38.273438 9.332031 38.273438 12.171875 38.273438 15.011719 L 38.273438 26.585938 Z M 32.390625 28.273438 C 32.40625 25.722656 31.921875 23.285156 30.734375 21.019531 C 28.902344 17.523438 26.039062 15.367188 22.214844 14.484375 C 20.613281 14.113281 19.003906 14.089844 17.382812 14.226562 C 14.894531 14.414062 12.523438 15.347656 10.570312 16.902344 C 7.652344 19.214844 6.117188 22.34375 5.628906 25.984375 C 5.238281 28.933594 5.554688 31.828125 6.796875 34.570312 C 8.179688 37.628906 10.378906 39.839844 13.457031 41.148438 C 15.914062 42.191406 18.472656 42.433594 21.09375 42.066406 C 24.253906 41.625 26.945312 40.261719 29.042969 37.824219 C 31.390625 35.089844 32.367188 31.84375 32.386719 28.269531 Z M 32.390625 28.273438 "/>
</g>
</svg>
